 <svg version="1.0" xmlns="http://www.w3.org/2000/svg" width="700.000000pt" height="700.000000pt" viewBox="0 0 700.000000 700.000000" preserveAspectRatio="xMidYMid meet">
<metadata>
Created by potrace 1.12, written by Peter Selinger 2001-2015
</metadata>
<g  transform="translate(0.000000,700.000000) scale(0.100000,-0.100000)" fill="#000000" stroke="none">
<path d="M3370 6340 c-11 -11 -20 -33 -20 -50 0 -34 62 -13 -565 -190 -236
-67 -432 -123 -436 -126 -4 -2 -14 4 -21 14 -49 70 -141 46 -143 -36 -1 -39
-10 -49 -512 -547 -508 -502 -512 -506 -546 -500 -73 14 -119 -74 -68 -129
l22 -23 -96 -444 c-52 -244 -114 -531 -137 -636 -36 -167 -44 -193 -60 -193
-11 0 -30 -11 -43 -25 -48 -47 -23 -123 46 -140 23 -6 33 -28 113 -253 48
-136 145 -409 216 -607 70 -198 131 -371 135 -383 5 -18 1 -30 -16 -48 -57
-60 -10 -148 77 -142 43 3 44 2 583 -420 437 -341 541 -428 541 -446 0 -13 9
-35 21 -50 24 -30 72 -35 99 -11 15 14 69 14 511 2 453 -12 497 -15 526 -33
32 -19 32 -19 62 4 26 19 43 22 116 22 78 0 87 -2 107 -25 30 -35 81 -34 114
2 21 23 130 65 559 219 463 166 535 189 551 177 58 -43 132 28 101 97 -5 10
141 206 456 615 388 504 467 601 490 603 30 4 67 44 67 74 0 11 -13 32 -29 48
l-28 29 -12 806 -11 807 30 28 c21 19 30 37 30 59 0 34 -29 70 -57 72 -10 0
-30 2 -44 2 -22 2 -102 99 -516 631 l-490 629 15 26 c30 54 -11 121 -73 121
-35 0 -76 -28 -86 -58 -3 -9 -102 11 -354 73 -624 152 -1087 265 -1091 265 -2
0 -4 13 -4 29 0 15 -9 40 -21 55 -26 33 -79 36 -109 6z m14 -118 c4 -7 -50
-211 -59 -220 -3 -3 -117 -8 -254 -11 -138 -3 -247 -3 -243 1 11 10 526 237
539 238 6 0 14 -3 17 -8z m191 -88 c61 -47 111 -89 113 -93 2 -5 -4 -16 -13
-25 -14 -13 -42 -16 -171 -16 -85 0 -154 1 -154 3 0 2 6 23 14 48 8 24 22 70
30 101 15 53 24 63 61 67 6 0 60 -38 120 -85z m-320 65 c-11 -5 -128 -56 -259
-114 l-239 -105 -151 1 -151 1 395 113 c364 105 459 129 405 104z m495 -109
c0 -3 -10 -10 -22 -15 -20 -9 -34 -3 -103 50 -43 33 -86 66 -95 73 -8 7 38
-13 103 -45 64 -32 117 -60 117 -63z m177 35 c822 -200 924 -227 808 -210 -35
4 -157 17 -635 65 l-115 12 -215 109 c-118 60 -210 109 -203 109 6 0 168 -38
360 -85z m-28 -123 c-23 -3 -37 2 -46 14 -23 31 -14 34 33 11 l47 -22 -34 -3z
m-214 -29 c0 -13 -405 -277 -412 -269 -3 2 12 65 33 140 l38 135 56 4 c123 8
285 2 285 -10z m-371 -20 c-4 -16 -23 -84 -43 -153 l-36 -125 -80 -53 -80 -53
-150 6 c-337 15 -697 34 -702 38 -2 3 -1 31 4 62 l8 58 268 118 268 118 107 4
c59 1 182 4 275 5 l167 2 -6 -27z m856 -72 c95 -49 168 -91 163 -94 -5 -3 -32
-9 -60 -13 -50 -6 -53 -5 -237 96 -102 57 -186 105 -186 108 0 2 33 1 74 -3
66 -6 90 -15 246 -94z m-1451 84 c-9 -8 -474 -213 -477 -210 -2 2 0 29 3 60 7
51 11 58 36 67 15 5 37 25 48 43 l20 34 103 4 c214 6 271 7 267 2z m1656 -35
c160 -16 342 -35 405 -40 63 -6 126 -14 140 -17 27 -7 -14 -16 -299 -68 l-144
-27 -21 25 c-29 33 -47 38 -84 20 -30 -15 -33 -14 -169 57 -76 40 -140 74
-142 76 -7 7 17 5 314 -26z m-363 -72 c92 -51 168 -95 168 -98 0 -7 -332 -71
-338 -66 -2 3 -14 53 -27 113 l-24 108 21 18 c11 9 23 17 26 17 3 0 81 -41
174 -92z m-269 65 c9 -3 19 -15 22 -27 17 -69 45 -210 42 -212 -1 -1 -125 -27
-275 -57 -297 -59 -304 -59 -286 3 7 24 48 54 229 170 137 87 226 138 235 134
8 -4 23 -9 33 -11z m-1554 -50 c-114 -144 -189 -218 -189 -186 0 4 44 52 97
105 93 94 122 119 92 81z m35 -52 c-3 -33 -12 -67 -18 -75 -11 -15 -166 -89
-166 -79 0 9 183 223 187 219 2 -2 1 -31 -3 -65z m2752 8 c12 -11 34 -21 49
-23 15 -2 31 -9 35 -17 4 -8 44 -117 89 -244 45 -126 88 -246 96 -267 12 -32
12 -38 -1 -49 -17 -14 -56 2 -204 88 -85 49 -580 419 -580 434 0 8 32 15 245
55 77 14 158 29 180 34 61 12 67 12 91 -11z m-605 -98 c29 -30 37 -51 19 -51
-6 0 -35 14 -66 31 -40 23 -52 34 -42 40 25 17 60 9 89 -20z m-65 -37 c82 -44
84 -46 84 -82 0 -20 -7 -187 -17 -371 -17 -319 -18 -334 -38 -343 -17 -8 -51
9 -195 98 -96 59 -176 108 -178 109 -3 3 -112 534 -112 549 0 9 58 25 173 49
94 19 178 35 186 36 8 1 52 -19 97 -45z m318 -94 c94 -71 185 -141 201 -155
34 -29 50 -38 -240 122 -144 79 -160 91 -163 117 -3 24 9 45 27 46 2 0 81 -58
175 -130z m946 -440 c233 -300 430 -554 439 -564 30 -36 -10 -5 -248 194 -129
107 -250 208 -270 223 -20 15 -38 33 -40 40 -2 7 -59 122 -126 257 -152 306
-210 429 -192 410 8 -8 204 -260 437 -560z m-3366 501 l-7 -51 -41 0 c-63 0
-116 11 -116 25 0 10 161 88 168 80 2 -1 0 -26 -4 -54z m1665 -261 c29 -144
52 -262 50 -264 -9 -7 -644 391 -644 404 0 10 69 28 255 66 140 28 262 52 270
53 12 1 27 -54 69 -259z m1451 -135 c0 -2 -11 -5 -24 -7 -20 -4 -27 1 -35 21
-24 59 -131 363 -131 369 1 6 190 -377 190 -383z m-2100 353 c-1 -13 -66 -48
-90 -48 -13 0 67 58 83 59 4 1 7 -5 7 -11z m1578 -194 c122 -67 248 -146 313
-196 60 -45 109 -85 108 -88 0 -3 -84 -58 -187 -124 l-187 -118 -190 -14
c-238 -17 -226 -17 -253 6 l-24 20 17 347 c9 192 18 354 21 361 4 15 13 10
382 -194z m-2894 146 c-99 -92 -244 -220 -244 -215 0 13 255 253 259 243 2 -6
-5 -18 -15 -28z m286 3 c0 -10 -11 -103 -25 -208 -14 -104 -28 -214 -31 -244
-4 -30 -10 -47 -14 -40 -4 8 -26 88 -49 179 -24 91 -51 194 -62 230 l-19 65
23 17 c16 13 42 18 100 18 67 0 77 -2 77 -17z m725 -20 l120 -8 -419 -268
c-397 -254 -421 -268 -444 -255 -23 12 -24 16 -18 73 7 77 57 467 61 480 2 10
386 -3 700 -22z m-1166 -325 l-191 -335 -177 -21 c-97 -12 -182 -22 -189 -22
-43 0 24 69 368 380 206 186 376 337 378 336 1 -2 -84 -154 -189 -338z m294
79 c37 -139 67 -258 67 -264 0 -7 -9 -14 -19 -18 -10 -3 -24 -19 -31 -35 -7
-17 -22 -32 -34 -35 -37 -8 -428 -56 -432 -52 -5 4 369 657 376 657 4 0 37
-114 73 -253z m1107 218 c0 -7 -187 -144 -416 -305 l-417 -291 -48 11 c-43 10
-79 34 -68 44 2 2 201 129 441 283 397 254 440 279 472 275 21 -2 36 -10 36
-17z m451 -225 c173 -105 318 -195 322 -200 11 -10 91 -390 84 -397 -10 -10
-389 -153 -405 -153 -10 0 -111 28 -227 63 l-210 63 2 69 c25 723 26 735 53
735 10 0 22 5 26 11 3 6 14 9 23 6 10 -2 159 -91 332 -197z m-421 153 c0 -52
-31 -768 -34 -770 -3 -4 -796 232 -796 237 0 9 804 569 818 570 7 0 12 -14 12
-37z m2038 -272 c7 -20 -12 -11 -53 26 l-40 35 45 -25 c24 -13 46 -30 48 -36z
m192 -96 c0 -5 -10 0 -21 12 -13 12 -18 26 -14 33 6 9 12 6 21 -11 7 -13 13
-28 14 -34z m-145 13 c24 -11 37 -40 60 -139 6 -26 6 -26 -62 -32 -37 -4 -120
-9 -183 -12 -63 -3 -126 -8 -140 -11 -17 -4 -22 -2 -15 5 10 10 305 201 311
201 2 0 15 -5 29 -12z m144 -38 c24 -22 41 -43 38 -46 -6 -7 -107 67 -107 78
0 18 28 5 69 -32z m-1261 -96 c141 -86 162 -102 162 -124 0 -23 -10 -29 -130
-74 -72 -27 -132 -47 -135 -44 -5 5 -75 323 -75 341 0 10 -15 19 178 -99z
m1233 64 c46 -34 57 -47 52 -63 -7 -26 -5 -25 -48 -28 l-37 -2 -19 65 c-10 36
-18 66 -19 68 -1 8 20 -3 71 -40z m264 -162 c62 -49 93 -79 65 -60 -59 40
-160 120 -160 128 0 9 3 7 95 -68z m-3579 49 c4 -9 -18 -57 -49 -111 l-54 -95
-344 -200 c-189 -109 -347 -199 -351 -199 -5 0 -8 4 -8 9 0 9 294 527 311 547
5 6 39 14 77 18 37 4 128 15 202 25 173 24 209 25 216 6z m214 -2 c7 -7 -52
-53 -68 -53 -7 0 -22 5 -34 11 -20 11 -20 11 3 36 20 20 30 23 59 18 19 -4 37
-9 40 -12z m3169 -12 c12 -8 13 -20 2 -78 -7 -37 -18 -86 -25 -108 l-12 -40
-27 102 c-15 56 -27 106 -27 112 0 18 65 27 89 12z m-2779 -102 c482 -143 475
-140 474 -167 0 -12 -1 -66 -2 -120 l-2 -97 -35 -11 c-34 -11 -51 -4 -448 183
-226 107 -418 197 -424 200 -47 20 53 120 107 108 14 -4 162 -47 330 -96z
m2679 69 c5 -18 21 -78 35 -133 l25 -100 -18 -75 c-11 -41 -54 -229 -97 -417
-73 -317 -80 -342 -101 -346 -19 -3 -64 52 -340 416 -175 232 -321 426 -325
432 -4 6 63 54 160 117 l167 107 200 14 c304 22 282 23 294 -15z m460 -168
c215 -164 241 -187 241 -212 0 -18 10 -39 25 -54 l26 -26 -66 -166 c-102 -258
-108 -273 -116 -265 -3 5 -25 55 -49 113 -23 58 -107 261 -186 452 -79 192
-144 350 -144 353 0 10 20 -4 269 -195z m-3669 179 c0 -3 -9 -14 -20 -24 -11
-10 -20 -29 -20 -41 0 -17 -12 -31 -41 -50 -22 -14 -42 -24 -44 -22 -2 2 14
36 36 76 34 60 44 71 65 70 13 -1 24 -5 24 -9z m3574 -468 l198 -479 -43 -112
-44 -113 -78 6 c-43 3 -80 7 -82 9 -2 1 -28 100 -59 218 -31 118 -85 324 -119
458 l-64 243 27 116 c24 100 39 132 60 133 3 0 95 -216 204 -479z m-4174 455
c0 -5 -300 -529 -306 -535 -2 -2 -7 -2 -10 1 -7 8 -104 385 -104 407 0 10 9
21 20 24 11 3 27 18 37 34 16 29 19 30 172 50 180 23 191 24 191 19z m3239
-10 c-4 -3 -245 -157 -266 -169 -7 -5 -29 16 -58 53 -38 49 -44 63 -36 79 9
16 26 20 118 26 60 3 115 8 123 9 21 5 124 7 119 2z m-434 -66 c5 -8 -7 -65
-46 -212 -8 -30 -20 -43 -67 -72 l-58 -35 -46 22 -45 22 -18 82 c-9 45 -15 87
-13 93 4 13 242 109 270 110 9 0 19 -4 23 -10z m99 -59 l45 -59 -80 -52 c-43
-29 -81 -51 -83 -49 -10 10 48 219 60 219 7 0 33 -27 58 -59z m-2310 34 c19
-15 19 -23 -32 -532 -29 -285 -52 -521 -52 -525 0 -4 -13 -14 -29 -22 l-29
-15 -203 160 c-112 88 -205 164 -206 167 -2 4 88 164 200 356 l202 349 60 38
c70 44 65 42 89 24z m456 -162 c140 -66 306 -144 368 -173 61 -29 112 -59 112
-66 0 -7 3 -19 6 -27 4 -11 -88 -78 -328 -242 -183 -125 -338 -229 -344 -232
-6 -2 -16 18 -22 49 -6 29 -54 231 -107 448 -86 355 -94 396 -79 407 18 13 0
20 394 -164z m-370 -73 c100 -417 160 -671 160 -678 0 -5 -61 -50 -135 -101
-135 -92 -135 -92 -159 -74 -21 15 -24 24 -20 58 18 159 94 929 94 956 0 62
17 15 60 -161z m-467 -184 c-103 -179 -192 -326 -196 -326 -4 0 -72 50 -150
112 -78 61 -143 112 -145 113 -1 1 1 13 6 26 7 17 99 75 338 214 181 106 330
191 332 189 2 -1 -82 -148 -185 -328z m2281 251 l18 -83 -37 -37 c-20 -20 -42
-37 -47 -37 -27 0 -327 95 -320 102 8 8 342 137 358 138 6 0 19 -37 28 -83z
m-2935 -243 l12 -300 -137 -287 c-76 -158 -139 -285 -141 -284 -1 2 24 129 57
283 111 514 181 839 186 867 3 16 7 27 9 25 2 -2 8 -138 14 -304z m2278 235
c101 -30 183 -56 183 -59 0 -3 -87 -38 -193 -77 -152 -58 -194 -70 -204 -60
-9 9 -11 44 -6 135 5 106 8 123 22 119 9 -2 98 -29 198 -58z m1460 -377 c177
-234 321 -428 319 -429 -3 -4 -876 513 -889 526 -9 9 36 198 50 212 16 16 178
118 188 118 6 0 155 -192 332 -427z m-3667 260 l31 -124 -26 -24 c-30 -27 -32
-60 -6 -88 18 -21 18 -22 -4 -71 l-23 -50 -5 75 c-12 149 -17 446 -7 425 5
-11 23 -76 40 -143z m4316 -127 c31 -121 80 -310 109 -420 29 -110 50 -201 46
-203 -3 -1 -88 4 -188 11 -172 13 -183 15 -203 38 -11 13 -18 31 -17 39 63
293 183 787 189 773 4 -10 33 -117 64 -238z m-1738 135 c229 -68 227 -67 238
-99 11 -28 10 -29 -167 -165 -99 -75 -185 -139 -192 -142 -14 -5 -449 266
-451 281 -1 11 387 164 417 164 10 1 80 -17 155 -39z m513 -63 c-10 -43 -21
-80 -24 -83 -3 -3 -18 1 -34 10 -27 13 -29 18 -24 55 5 34 13 45 51 69 25 16
46 28 47 28 1 -1 -6 -37 -16 -79z m-63 -97 c17 -11 32 -23 32 -28 0 -14 -111
-477 -116 -481 -2 -2 -4 7 -4 20 0 13 -4 87 -10 164 -5 77 -10 177 -12 223
l-2 82 34 19 c45 24 40 24 78 1z m-813 -122 c115 -73 210 -137 211 -143 2 -9
-417 -336 -424 -330 -2 2 -9 133 -17 291 -13 277 -11 314 14 314 4 0 101 -60
216 -132z m649 121 c22 -10 25 -19 30 -88 17 -218 26 -435 18 -443 -9 -9 -431
250 -432 264 0 6 349 277 357 278 1 0 13 -5 27 -11z m2036 -260 c-17 -145 -34
-277 -39 -294 -8 -30 -8 -30 -38 35 -63 136 -65 110 22 333 43 108 80 196 82
194 1 -2 -11 -123 -27 -268z m-2939 136 c4 -60 10 -195 14 -300 l7 -190 -243
-186 c-134 -102 -249 -189 -256 -192 -6 -4 -41 7 -77 25 l-65 32 -55 225 c-34
137 -52 229 -46 235 5 5 159 112 342 237 202 138 341 228 353 226 18 -2 21
-12 26 -112z m1578 -178 l425 -252 -274 -6 c-151 -4 -368 -7 -481 -8 l-207 -1
-17 26 c-16 25 -15 33 30 222 71 302 66 284 83 277 9 -3 207 -119 441 -258z
m1425 -641 c3 -242 4 -438 2 -435 -3 3 -16 92 -30 199 -14 107 -34 260 -45
340 -19 143 -19 145 0 163 22 21 24 45 5 72 -11 17 -8 59 18 285 l31 265 6
-225 c4 -124 9 -423 13 -664z m-4728 739 l145 -116 -33 -57 c-18 -32 -76 -133
-128 -224 -52 -92 -98 -168 -102 -168 -5 0 -8 15 -8 33 -1 17 -11 168 -23 335
-13 167 -21 305 -18 307 11 11 29 -1 167 -110z m-166 -281 l23 -330 -37 -67
c-40 -72 -54 -86 -61 -65 -2 7 -9 168 -15 358 l-12 344 33 69 c29 59 34 65 40
45 3 -13 16 -172 29 -354z m2602 75 c106 -67 198 -127 205 -133 7 -6 14 -25
15 -43 3 -30 -8 -39 -411 -342 -228 -171 -420 -311 -428 -311 -24 0 -30 41
-42 324 -11 264 -11 281 6 297 49 48 440 338 450 335 6 -3 98 -60 205 -127z
m-2721 -223 l10 -306 -36 -34 -36 -34 -82 33 c-68 27 -83 38 -90 61 -5 16 -16
37 -25 46 -14 16 -10 29 46 145 151 317 194 404 198 400 3 -2 9 -142 15 -311z
m660 133 c164 -128 205 -165 207 -187 2 -15 8 -33 14 -39 11 -14 14 -11 -160
-218 l-101 -119 -93 2 c-51 1 -150 5 -220 8 l-126 6 -7 113 -7 113 138 241
c77 132 142 241 145 241 3 0 98 -72 210 -161z m4183 -13 c25 -65 26 -69 10
-87 -13 -14 -31 -19 -71 -19 -29 0 -53 4 -53 8 0 5 12 37 26 73 15 35 30 75
36 88 11 31 19 22 52 -63z m-3524 -191 c27 -115 48 -210 46 -212 -1 -2 -91 39
-199 92 l-196 94 11 28 c8 20 51 56 146 120 75 51 137 91 139 89 1 -1 25 -96
53 -211z m2722 92 c16 -23 9 -32 -345 -530 -199 -279 -365 -507 -369 -507 -9
0 -17 26 -187 595 -87 293 -125 434 -118 442 9 13 91 15 757 20 244 2 245 2
262 -20z m425 -14 l71 -6 20 -80 c21 -80 18 -107 -11 -107 -13 0 -367 200
-367 207 0 6 138 -1 287 -14z m-1487 -20 c0 -16 7 -197 15 -403 20 -508 20
-534 -2 -527 -10 3 -209 70 -443 150 -318 108 -425 148 -425 160 0 14 828 646
848 647 4 0 7 -12 7 -27z m1394 -117 l149 -85 0 -38 c0 -37 -4 -41 -129 -140
-71 -56 -133 -102 -139 -102 -8 -1 -137 476 -135 502 0 5 24 -5 53 -22 28 -16
119 -68 201 -115z m314 119 c1 -1 -10 -36 -26 -76 -41 -101 -59 -101 -88 3
-12 43 -20 79 -18 81 4 4 127 -4 132 -8z m-529 -239 c35 -134 64 -250 64 -258
2 -13 -665 -542 -698 -554 -15 -6 -180 21 -180 29 0 15 729 1027 740 1027 7 0
38 -101 74 -244z m-2110 -52 c13 -298 13 -303 -26 -304 -20 0 -458 221 -458
231 0 10 452 359 465 359 4 0 12 -129 19 -286z m2810 259 l28 -28 -37 -85
c-21 -47 -57 -129 -80 -183 l-43 -99 -30 52 -29 51 17 39 c20 44 15 80 -14
107 -18 18 -18 20 12 96 l30 77 59 0 c51 0 63 -4 87 -27z m-1791 -181 c212
-709 236 -792 224 -804 -16 -16 -238 55 -251 80 -4 9 -14 208 -20 442 -7 234
-14 433 -16 443 -2 9 0 17 3 17 4 0 31 -80 60 -178z m1892 -286 c28 -214 48
-391 45 -394 -9 -9 -19 7 -145 231 l-122 217 45 108 c112 267 111 264 119 245
4 -10 30 -193 58 -407z m-3787 300 c229 -111 241 -122 181 -170 -18 -14 -34
-36 -36 -48 -3 -23 -4 -23 -147 -21 -79 1 -146 4 -148 7 -7 7 -72 295 -73 319
0 10 4 17 9 15 4 -1 101 -48 214 -102z m-212 -74 c20 -86 35 -158 34 -160 -1
-1 -77 1 -169 4 -129 6 -166 10 -162 20 8 22 250 303 256 298 3 -3 21 -76 41
-162z m-806 -44 c6 -81 5 -88 -12 -88 -11 1 -25 16 -38 43 l-20 42 29 48 c15
26 30 47 31 45 1 -2 6 -42 10 -90z m4415 -3 c10 -12 -4 -88 -71 -395 -46 -209
-87 -380 -90 -380 -9 0 -151 559 -144 570 8 13 276 220 285 220 4 0 13 -7 20
-15z m-3108 -21 c35 -18 47 -29 40 -36 -7 -7 -19 -4 -38 11 -15 11 -35 21 -45
21 -11 0 -19 7 -19 15 0 20 2 19 62 -11z m-1613 -18 c69 -27 86 -39 96 -63 14
-33 50 -63 76 -63 13 0 18 -23 30 -134 8 -74 11 -133 8 -130 -4 2 -80 92 -169
200 -131 159 -159 198 -149 210 15 19 13 19 108 -20z m4829 -25 c17 -33 32
-65 32 -72 0 -16 -262 -630 -267 -626 -3 3 152 716 162 745 10 30 41 10 73
-47z m-2763 -178 c87 -44 100 -54 101 -77 2 -22 -8 -33 -49 -61 -59 -40 -29
-52 -281 107 l-180 113 0 37 c1 73 10 73 167 -1 78 -38 187 -91 242 -118z
m-1997 -57 l153 -185 25 -233 c14 -128 33 -306 42 -395 10 -90 15 -160 11
-155 -5 6 -413 1145 -426 1192 -6 19 9 3 195 -224z m246 172 c3 -13 6 -47 6
-77 l0 -54 -40 56 c-34 47 -39 60 -30 77 15 28 56 26 64 -2z m373 6 l62 -5
-136 -162 c-75 -89 -139 -164 -141 -167 -5 -6 -38 35 -88 107 -33 48 -36 58
-41 147 l-6 96 144 -6 c79 -2 172 -7 206 -10z m464 -23 c3 -3 41 -164 83 -358
l78 -351 -22 -22 -21 -21 -324 108 -324 107 -65 92 c-36 51 -67 97 -68 103 -2
5 62 89 142 186 l145 175 185 -6 c102 -3 188 -9 191 -13z m329 -31 c14 -15 34
-33 46 -38 20 -11 20 -11 -22 -314 -24 -167 -43 -305 -44 -308 0 -3 -15 -15
-34 -28 -32 -22 -34 -22 -62 -6 -29 17 -31 24 -107 368 -43 193 -78 353 -77
356 0 3 62 4 138 2 136 -4 137 -4 162 -32z m-1186 -85 c33 -48 35 -56 41 -166
6 -102 5 -117 -9 -122 -19 -7 -73 45 -81 78 -5 21 -35 288 -35 308 1 14 36
-27 84 -98z m4711 -117 c156 -277 169 -245 -149 -372 -198 -79 -243 -94 -254
-83 -10 11 12 71 129 346 78 182 146 328 149 324 4 -4 60 -101 125 -215z
m-3158 71 c107 -67 191 -125 186 -130 -33 -33 -549 -384 -551 -375 -3 14 76
575 84 587 3 5 13 9 23 9 10 0 24 7 31 15 7 8 17 15 22 15 5 0 97 -55 205
-121z m2628 -256 l65 -252 -23 -24 c-21 -23 -26 -24 -77 -16 -30 5 -203 32
-384 59 -181 28 -331 52 -333 53 -1 2 147 119 330 261 l332 257 13 -43 c7 -24
42 -156 77 -295z m-1317 -90 c8 -12 12 -59 12 -152 l-1 -136 -59 -43 -60 -44
-148 91 c-81 50 -257 160 -392 244 l-245 152 -12 89 c-9 63 -10 93 -2 102 8
10 103 -19 452 -137 254 -86 447 -157 455 -166z m-2751 235 l41 -62 -25 -33
c-26 -34 -50 -43 -58 -20 -6 19 -11 177 -5 177 3 -1 24 -28 47 -62z m1807 52
c8 0 17 -27 24 -77 6 -43 9 -79 7 -81 -5 -5 -155 90 -155 99 0 14 84 68 98 64
8 -3 19 -5 26 -5z m-55 -136 c50 -30 92 -63 95 -72 3 -9 28 -179 56 -377 28
-198 53 -372 56 -386 5 -26 2 -28 -75 -54 l-80 -26 -368 202 c-202 111 -373
207 -379 213 -8 8 -8 31 0 83 l11 72 285 200 c157 110 291 200 297 201 7 0 53
-25 102 -56z m-1631 -89 c31 -43 50 -76 42 -73 -8 3 -48 16 -87 29 -64 20 -73
26 -73 47 0 25 39 82 54 78 5 -1 34 -37 64 -81z m-235 -6 c-3 -11 6 -29 22
-45 l26 -26 -1 -207 c-2 -190 -15 -433 -18 -351 -1 19 -18 178 -37 353 -19
175 -35 326 -35 335 0 12 6 9 24 -12 13 -17 21 -38 19 -47z m2359 -210 c205
-128 374 -233 376 -235 2 -1 -54 -46 -125 -101 l-129 -98 -192 -59 c-105 -33
-194 -58 -196 -55 -2 2 -27 166 -55 364 -28 198 -54 372 -57 388 -3 15 -3 27
0 27 3 0 173 -104 378 -231z m-2142 140 l96 -32 327 -458 c216 -302 325 -463
321 -473 -8 -21 -26 -19 -111 12 l-72 27 -336 467 c-184 256 -335 471 -335
477 0 15 2 15 110 -20z m213 -464 c179 -247 322 -451 318 -452 -3 -1 -145 42
-315 95 -299 95 -309 99 -321 129 -7 17 -21 35 -31 41 -17 9 -18 29 -16 249 3
315 10 419 28 401 7 -7 159 -215 337 -463z m2592 435 c55 -18 103 -35 107 -39
3 -3 -45 -45 -107 -93 -132 -100 -125 -104 -125 66 0 82 3 107 13 104 6 -3 57
-20 112 -38z m1795 13 c0 -8 -606 -712 -655 -762 -22 -22 -19 -8 36 205 33
126 62 243 66 260 3 19 17 41 34 53 16 12 29 30 29 40 0 15 46 38 238 115 246
99 252 101 252 89z m28 -32 c-4 -13 -912 -1190 -915 -1187 -1 1 32 68 75 149
60 115 81 147 97 147 49 0 87 59 65 100 -9 16 31 66 288 363 164 189 316 365
337 390 36 43 62 61 53 38z m-4165 -107 c167 -56 297 -104 297 -111 0 -6 11
-20 25 -31 l25 -20 0 -301 c0 -288 -1 -301 -20 -311 -18 -9 -48 30 -328 422
-351 493 -330 463 -311 456 8 -3 148 -50 312 -104z m2650 67 c16 -6 7 -16 -49
-59 -37 -29 -71 -49 -75 -45 -9 10 -18 111 -10 118 6 7 107 -4 134 -14z m-152
-27 c4 -16 7 -47 7 -69 1 -39 -1 -41 -113 -128 -114 -87 -115 -87 -140 -71
-21 14 -25 24 -25 68 l1 51 122 92 c67 51 127 91 132 90 6 -2 13 -17 16 -33z
m631 -44 c214 -33 394 -63 400 -66 5 -3 8 -9 6 -14 -6 -15 -541 -460 -554
-460 -7 0 -95 29 -196 64 -101 35 -193 67 -205 71 -13 3 -23 12 -23 20 0 7 -7
77 -15 156 -8 78 -13 144 -11 147 26 26 184 141 194 142 8 0 189 -27 404 -60z
m-2646 -62 c-3 -13 -8 -40 -11 -60 -7 -43 -5 -42 -40 -26 -21 10 -25 17 -20
37 5 24 50 71 68 71 4 0 5 -10 3 -22z m2046 -180 c8 -79 14 -144 13 -146 -1
-1 -57 17 -124 40 -155 54 -155 58 -16 167 55 44 103 80 106 80 3 1 13 -63 21
-141z m927 -145 c-51 -147 -95 -272 -99 -276 -6 -7 -325 95 -338 107 -2 2 115
104 259 225 144 122 264 219 266 217 3 -2 -37 -125 -88 -273z m48 8 c-57 -219
-65 -245 -86 -253 -13 -5 -26 -7 -28 -5 -2 3 36 119 84 260 48 141 89 253 90
249 2 -4 -26 -117 -60 -251z m-1298 194 c1 -29 -63 -59 -90 -42 -11 7 -19 14
-19 17 1 3 22 21 48 42 50 38 59 35 61 -17z m-1743 -13 c-5 -19 -4 -8 -47
-327 -17 -126 -35 -234 -40 -239 -5 -6 -9 120 -9 301 0 240 3 312 13 316 6 2
29 -4 50 -15 27 -13 37 -24 33 -36z m394 -200 c184 -101 339 -188 343 -192 5
-4 -69 -33 -165 -63 -313 -100 -564 -177 -574 -176 -5 0 -21 15 -36 33 l-28
33 40 284 c22 156 40 285 40 287 0 4 3 2 380 -206z m1248 151 c15 -13 19 -26
16 -43 -5 -22 -19 -29 -126 -63 -66 -21 -122 -36 -124 -34 -6 5 189 156 202
156 7 1 21 -7 32 -16z m434 -162 c4 -3 17 -98 28 -211 18 -164 20 -205 9 -209
-7 -2 -22 -14 -33 -26 l-21 -22 -187 31 c-149 24 -188 34 -188 46 0 8 14 104
32 212 31 195 32 197 59 207 15 5 35 21 44 35 l17 25 116 -41 c64 -22 120 -43
124 -47z m-393 50 c10 -10 24 -20 31 -23 9 -3 4 -55 -21 -208 -17 -113 -35
-208 -38 -212 -8 -10 -622 92 -636 104 -11 11 -6 16 182 159 l131 101 154 48
c84 27 159 49 166 49 6 1 20 -7 31 -18z m597 -117 c88 -31 174 -61 192 -66 18
-5 32 -13 30 -17 -7 -19 -324 -280 -340 -281 -20 0 -23 11 -43 214 -17 172
-18 206 -6 206 5 0 80 -25 167 -56z m-1011 8 c-6 -5 -67 -52 -137 -106 -114
-86 -129 -95 -147 -84 -20 12 -39 83 -26 96 7 8 283 99 305 101 8 1 10 -2 5
-7z m-325 -141 c0 -60 -17 -66 -85 -29 l-59 32 50 17 c27 10 59 18 72 18 19 1
22 -4 22 -38z m1770 -18 c91 -31 167 -58 168 -59 2 -1 -1 -18 -7 -36 -10 -29
-39 -49 -222 -160 l-209 -127 -128 53 c-108 46 -127 57 -127 76 0 16 46 60
170 166 94 79 175 143 180 144 6 0 84 -25 175 -57z m-3416 -69 c149 -48 288
-91 309 -97 31 -8 48 -24 97 -90 32 -45 56 -85 54 -89 -3 -4 -93 36 -202 90
-397 195 -547 271 -538 271 5 1 131 -38 280 -85z m1603 8 c3 -7 0 -19 -6 -25
-7 -7 -190 -60 -409 -118 l-397 -106 -47 21 c-67 29 -63 54 12 77 30 9 206 64
390 122 l335 105 59 -31 c32 -17 61 -37 63 -45z m-1546 -121 c354 -174 385
-191 399 -222 12 -28 21 -35 50 -37 34 -4 38 -9 145 -190 114 -192 124 -212
106 -212 -6 0 -251 187 -543 417 -569 444 -555 433 -546 433 3 0 178 -85 389
-189z m1569 54 c7 -8 21 -15 31 -15 10 0 21 -10 24 -22 4 -13 49 -154 101
-313 52 -160 94 -293 94 -296 0 -4 -84 30 -187 76 -104 45 -338 146 -520 225
-183 79 -330 146 -327 149 4 5 745 208 765 210 4 1 12 -6 19 -14z m424 -35
c165 -28 301 -52 302 -53 3 -3 -64 -408 -70 -422 -4 -12 -238 -183 -263 -192
-7 -3 -37 5 -67 16 l-53 22 -28 87 c-167 511 -183 565 -172 578 7 7 21 13 32
14 11 0 155 -23 319 -50z m1571 21 c5 -9 -124 -265 -131 -259 -1 2 15 53 36
113 22 61 40 115 40 121 0 26 42 45 55 25z m-114 -156 l-47 -135 -46 -23 c-45
-23 -46 -23 -84 -5 -22 10 -66 29 -98 43 l-59 25 184 115 c101 62 187 114 191
114 4 1 -14 -60 -41 -134z m-3057 87 c43 -15 51 -22 58 -50 10 -36 57 -72 96
-72 30 0 24 -22 -9 -30 -18 -5 -30 0 -47 18 -16 17 -30 23 -48 19 -20 -4 -31
5 -69 59 -60 84 -61 83 19 56z m2138 -42 c100 -17 183 -32 185 -34 2 -2 -28
-27 -67 -56 -155 -112 -391 -280 -394 -280 -2 0 37 247 59 368 4 19 12 32 21
32 8 0 97 -14 196 -30z m-1848 -60 c12 -11 -86 -39 -99 -28 -17 15 36 49 65
42 14 -3 29 -9 34 -14z m2275 -29 l115 -48 -40 -26 c-22 -13 -152 -93 -289
-177 -246 -150 -252 -153 -385 -190 -74 -21 -135 -38 -136 -37 -5 6 25 160 32
167 5 4 114 82 241 174 198 141 237 165 260 160 17 -3 36 1 48 10 11 8 25 15
30 15 6 0 61 -22 124 -48z m-1983 -96 c131 -57 378 -164 549 -238 274 -119
310 -137 318 -161 7 -22 5 -31 -12 -47 l-22 -20 -117 45 c-481 185 -1065 415
-1073 423 -6 6 -11 23 -12 39 -2 27 2 29 58 45 33 10 63 18 66 18 3 1 113 -46
245 -104z m-385 39 c5 -15 8 -28 6 -31 -2 -2 -24 5 -48 16 l-44 19 35 10 c19
6 36 11 38 11 1 1 7 -11 13 -25z m2614 -48 c56 -24 101 -49 103 -58 2 -11 -13
-19 -55 -30 -32 -9 -190 -52 -352 -97 -161 -45 -295 -80 -297 -78 -3 2 49 36
114 75 65 39 176 107 248 151 71 44 131 81 134 81 3 0 50 -20 105 -44z m-2627
-4 c33 -16 37 -24 93 -187 32 -93 58 -173 56 -177 -2 -6 -225 359 -236 385 -5
12 40 1 87 -21z m225 -86 c90 -36 251 -98 358 -140 299 -116 582 -227 604
-237 20 -10 -470 -5 -776 8 l-156 6 -10 28 c-6 16 -24 34 -40 41 -15 7 -31 17
-35 23 -4 5 -31 78 -59 160 -28 83 -53 156 -56 163 -2 6 -2 12 1 12 3 0 79
-29 169 -64z m2507 -5 c0 -9 -1041 -383 -1048 -377 -2 3 61 42 140 89 l143 85
370 102 c203 56 372 104 374 106 8 7 21 4 21 -5z m-1103 -226 l-12 -59 -75
-23 c-88 -27 -91 -27 -115 -10 -16 13 -8 21 96 96 66 47 115 76 116 69 2 -7
-3 -40 -10 -73z m135 -71 c-96 -57 -122 -62 -122 -21 0 22 9 26 93 49 50 15
99 26 107 27 8 1 -27 -24 -78 -55z m-444 0 c35 -14 36 -16 18 -29 -23 -17 -51
-5 -59 25 -6 24 -6 24 41 4z m292 -14 c0 -5 -9 -10 -20 -10 -11 0 -29 -9 -41
-21 -13 -13 -27 -18 -40 -14 -32 10 -22 20 39 37 31 8 58 16 60 17 1 0 2 -3 2
-9z m-207 -31 c-4 -4 -21 -10 -38 -14 l-30 -6 23 20 c21 18 64 19 45 0z m82
-28 l40 -19 -87 -1 c-93 -1 -112 9 -50 26 52 15 52 15 97 -6z"></path>
</g>
</svg>